<svg height="50" width="115" xmlns="http://www.w3.org/2000/svg"><path d="M.155 20.054H2.09l8.205 10.389V20.054h1.264V36.23L1.393 23.19v12.832H.103zM13.726 20.054h5.857l.826 1.852s-.98-.977-2.812-.977h-1.42v5.631h2.374c1.213 0 1.393-.129 1.858-.591v2.365s-.516-.797-1.858-.797h-2.374v7.406h3.303c3.2 0 4.85-1.337 4.85-1.337l-1.186 2.417H13.7zM95.078 20.054h6.502l.826 1.852s-.93-.977-2.942-.977h-2.141v5.631h2.58c.954 0 1.238-.077 1.6-.437v1.903s-.258-.566-1.6-.566h-2.58v7.483h1.574c2.812 0 3.921-.849 3.921-.849l-1.419 1.929h-6.321zM21.131 20.054h2.477l5.341 11.7 1.11-2.443-4.077-9.257h2.348l2.967 6.249 2.838-6.249h1.213L31.968 28l1.729 3.754 5.186-11.7h1.419L33.18 36.151l-2.477-5.22-2.4 5.246zM62.62 19.489c5.521 0 8.876 3.882 8.876 8.202 0 5.555-3.02 9.078-8.747 9.078s-9.134-4.295-9.134-8.589c0-4.834 3.612-8.691 9.005-8.691zm-6.631 8.331c0 3.754 2.116 7.843 6.915 7.843 4.438 0 6.192-3.626 6.192-7.74 0-3.292-2.245-7.483-6.605-7.483-3.019 0-6.502 2.391-6.502 7.38zM73.38 20.054h3.766c1.987 0 3.638 1.132 3.638 3.266 0 2.494-1.832 3.137-3.096 3.549 2.27.385 3.122 1.465 3.122 4.525s.774 4.166 1.47 4.166c.542 0 .955-.36 1.11-.591l.31.205c-.104.155-.723 1.132-2.194 1.132s-2.58-1.337-2.58-4.526c0-4.577-1.238-4.68-2.244-4.68v-.334c.025 0 2.115-.463 2.115-3.035 0-2.417-1.47-2.802-2.064-2.802H75.65v15.12h-2.323zM103.85 20.054h3.767c1.987 0 3.638 1.132 3.638 3.266 0 2.494-1.831 3.137-3.096 3.549 2.27.385 3.122 1.465 3.122 4.525s.774 4.166 1.47 4.166c.543 0 .956-.36 1.11-.591l.31.205c-.103.155-.722 1.132-2.193 1.132s-2.58-1.337-2.58-4.526c0-4.577-1.239-4.68-2.245-4.68v-.334c.026 0 2.116-.463 2.116-3.035 0-2.417-1.47-2.802-2.064-2.802h-1.084v15.12h-2.322zM91.26 31.343c0 3.06.773 4.166 1.47 4.166.542 0 .955-.36 1.11-.592l.31.206c-.104.154-.723 1.131-2.194 1.131s-2.58-1.337-2.58-4.525v-.643c0-1.903-.103-3.369-.413-4.32-.258-.746-1.187-1.312-1.574-1.312h-.49v10.543h-2.322l.026-15.994h2.296v4.706l4.206-4.706H92.6l-4.438 4.963c2.27.385 3.07 2.083 3.07 5.734v.643zM55.034 10.129h1.213v2.88h2.786v-2.88h1.213v6.685h-1.213v-3.291h-2.786v3.291h-1.213zM62.542 10.129h3.097l.387.977s-.62-.463-1.136-.463h-1.135v2.34h1.006c.568 0 .723-.257.723-.257v1.08s-.18-.309-.723-.309h-1.006v2.829h1.42c1.083 0 1.522-.566 1.522-.566l-.542 1.08h-3.638v-6.711zM51.06 10.643h.646c1.006 0 1.806.72 1.806.72l-.361-1.209h-5.47l-.361 1.209s.8-.72 1.806-.72h.645v6.171h1.264v-6.171zM50.313 36.023v-8.254l4.463-7.715h-1.445l-4.257 7.329-4.231-7.329h-1.445l4.464 7.715v8.254z"/></svg>